<svg xmlns="http://www.w3.org/2000/svg" viewBox="0 0 235 72" role="img" aria-label="WeDo Cleaning Services"><title>WeDo Cleaning Services</title><rect x="3" y="5" width="60" height="60" rx="17" fill="#007C70"/><path d="M16 24L23 47L33 31L42 47L56 21" fill="none" stroke="#fff" stroke-width="5.2" stroke-linecap="round" stroke-linejoin="round"/><circle cx="53" cy="16" r="4.5" fill="#D5F392"/><path fill="#142F36" transform="translate(78.000 43) scale(0.019500 -0.019500)" d="M442 0 20 1440H306L576 450L846 1438L1132 1440L1402 450L1672 1440H1958L1536 0H1268L989 972L710 0Z"/><path fill="#142F36" transform="translate(116.571 43) scale(0.019500 -0.019500)" d="M642 -30Q476 -30 349.5 41.5Q223 113 151.5 238.5Q80 364 80 526Q80 703 150.0 834.0Q220 965 343.0 1037.5Q466 1110 626 1110Q796 1110 915.0 1030.0Q1034 950 1091.0 805.0Q1148 660 1131 464H862V564Q862 729 809.5 801.5Q757 874 638 874Q499 874 433.5 789.5Q368 705 368 540Q368 389 433.5 306.5Q499 224 626 224Q706 224 763.0 259.0Q820 294 850 360L1122 282Q1061 134 929.5 52.0Q798 -30 642 -30ZM284 464V666H1000V464Z"/><path fill="#007C70" transform="translate(139.683 43) scale(0.019500 -0.019500)" d="M140 0V1440H606Q623 1440 676.0 1439.0Q729 1438 778 1432Q952 1411 1073.0 1311.0Q1194 1211 1257.0 1057.0Q1320 903 1320 720Q1320 537 1257.0 383.0Q1194 229 1073.0 129.0Q952 29 778 8Q729 2 676.0 1.0Q623 0 606 0ZM416 256H606Q633 256 679.0 257.5Q725 259 762 266Q856 285 915.5 354.0Q975 423 1003.5 520.0Q1032 617 1032 720Q1032 828 1002.5 925.0Q973 1022 913.0 1089.0Q853 1156 762 1174Q725 1182 679.0 1183.0Q633 1184 606 1184H416Z"/><path fill="#007C70" transform="translate(167.373 43) scale(0.019500 -0.019500)" d="M626 -30Q463 -30 340.0 43.0Q217 116 148.5 244.5Q80 373 80 540Q80 709 150.0 837.5Q220 966 343.0 1038.0Q466 1110 626 1110Q789 1110 912.5 1037.0Q1036 964 1105.0 835.5Q1174 707 1174 540Q1174 372 1104.5 243.5Q1035 115 911.5 42.5Q788 -30 626 -30ZM626 224Q757 224 821.5 312.5Q886 401 886 540Q886 684 820.5 770.0Q755 856 626 856Q537 856 480.0 816.0Q423 776 395.5 705.0Q368 634 368 540Q368 395 433.5 309.5Q499 224 626 224Z"/><path fill="#405E61" transform="translate(80.000 60) scale(0.008400 -0.008400)" d="M383 -12Q278 -12 202.5 33.5Q127 79 86.5 160.5Q46 242 46 349Q46 456 86.5 538.0Q127 620 202.5 666.0Q278 712 383 712Q510 712 591.0 649.0Q672 586 692 471H545Q532 527 490.5 558.5Q449 590 382 590Q320 590 275.5 560.5Q231 531 207.0 477.5Q183 424 183 349Q183 275 207.0 221.0Q231 167 275.5 138.0Q320 109 382 109Q449 109 490.0 138.5Q531 168 544 221H692Q672 112 591.0 50.0Q510 -12 383 -12Z"/><path fill="#405E61" transform="translate(87.999 60) scale(0.008400 -0.008400)" d="M69 0V700H204V105H511V0Z"/><path fill="#405E61" transform="translate(94.486 60) scale(0.008400 -0.008400)" d="M69 0V700H529V591H204V408H499V303H204V109H529V0Z"/><path fill="#405E61" transform="translate(101.184 60) scale(0.008400 -0.008400)" d="M22 0 278 700H431L686 0H543L354 546L164 0ZM135 159 171 264H527L562 159Z"/><path fill="#405E61" transform="translate(108.939 60) scale(0.008400 -0.008400)" d="M69 0V700H204L526 217V700H661V0H526L204 482V0Z"/><path fill="#405E61" transform="translate(116.863 60) scale(0.008400 -0.008400)" d="M69 0V700H204V0Z"/><path fill="#405E61" transform="translate(120.948 60) scale(0.008400 -0.008400)" d="M69 0V700H204L526 217V700H661V0H526L204 482V0Z"/><path fill="#405E61" transform="translate(128.871 60) scale(0.008400 -0.008400)" d="M376 -12Q276 -12 202.0 32.5Q128 77 87.0 157.5Q46 238 46 345Q46 453 88.0 535.5Q130 618 209.0 665.0Q288 712 398 712Q521 712 602.5 653.0Q684 594 708 489H557Q542 535 501.5 561.5Q461 588 397 588Q329 588 281.0 558.0Q233 528 208.0 474.0Q183 420 183 345Q183 269 208.0 216.0Q233 163 279.5 135.5Q326 108 389 108Q481 108 528.5 157.5Q576 207 585 286H413V387H721V0H596L586 89Q564 56 534.5 33.5Q505 11 466.0 -0.5Q427 -12 376 -12Z"/><path fill="#405E61" transform="translate(137.206 60) scale(0.008400 -0.008400)" d=""/><path fill="#405E61" transform="translate(140.980 60) scale(0.008400 -0.008400)" d="M310 -12Q234 -12 174.5 14.0Q115 40 80.5 90.0Q46 140 45 211H188Q189 180 204.0 155.0Q219 130 245.5 115.5Q272 101 309 101Q341 101 364.5 111.5Q388 122 401.0 141.0Q414 160 414 186Q414 216 399.5 236.0Q385 256 359.5 270.0Q334 284 300.5 295.5Q267 307 230 320Q147 347 103.5 392.0Q60 437 60 511Q60 574 90.5 619.0Q121 664 175.0 688.0Q229 712 298 712Q369 712 422.5 687.5Q476 663 507.5 617.0Q539 571 540 509H396Q395 532 382.5 552.5Q370 573 348.0 585.5Q326 598 296 598Q270 599 248.5 590.0Q227 581 214.5 563.5Q202 546 202 520Q202 495 214.5 478.0Q227 461 249.0 448.5Q271 436 301.0 425.5Q331 415 366 404Q418 386 462.0 361.5Q506 337 532.0 298.0Q558 259 558 195Q558 140 529.0 93.0Q500 46 445.5 17.0Q391 -12 310 -12Z"/><path fill="#405E61" transform="translate(147.854 60) scale(0.008400 -0.008400)" d="M69 0V700H529V591H204V408H499V303H204V109H529V0Z"/><path fill="#405E61" transform="translate(154.551 60) scale(0.008400 -0.008400)" d="M69 0V700H330Q415 700 470.0 671.0Q525 642 552.0 593.5Q579 545 579 486Q579 430 553.0 381.5Q527 333 471.5 303.5Q416 274 329 274H204V0ZM432 0 288 308H434L586 0ZM204 372H322Q383 372 412.0 402.0Q441 432 441 481Q441 530 412.5 558.5Q384 587 322 587H204Z"/><path fill="#405E61" transform="translate(161.652 60) scale(0.008400 -0.008400)" d="M270 0 15 700H159L353 138L548 700H691L436 0Z"/><path fill="#405E61" transform="translate(169.382 60) scale(0.008400 -0.008400)" d="M69 0V700H204V0Z"/><path fill="#405E61" transform="translate(173.467 60) scale(0.008400 -0.008400)" d="M383 -12Q278 -12 202.5 33.5Q127 79 86.5 160.5Q46 242 46 349Q46 456 86.5 538.0Q127 620 202.5 666.0Q278 712 383 712Q510 712 591.0 649.0Q672 586 692 471H545Q532 527 490.5 558.5Q449 590 382 590Q320 590 275.5 560.5Q231 531 207.0 477.5Q183 424 183 349Q183 275 207.0 221.0Q231 167 275.5 138.0Q320 109 382 109Q449 109 490.0 138.5Q531 168 544 221H692Q672 112 591.0 50.0Q510 -12 383 -12Z"/><path fill="#405E61" transform="translate(181.466 60) scale(0.008400 -0.008400)" d="M69 0V700H529V591H204V408H499V303H204V109H529V0Z"/><path fill="#405E61" transform="translate(188.163 60) scale(0.008400 -0.008400)" d="M310 -12Q234 -12 174.5 14.0Q115 40 80.5 90.0Q46 140 45 211H188Q189 180 204.0 155.0Q219 130 245.5 115.5Q272 101 309 101Q341 101 364.5 111.5Q388 122 401.0 141.0Q414 160 414 186Q414 216 399.5 236.0Q385 256 359.5 270.0Q334 284 300.5 295.5Q267 307 230 320Q147 347 103.5 392.0Q60 437 60 511Q60 574 90.5 619.0Q121 664 175.0 688.0Q229 712 298 712Q369 712 422.5 687.5Q476 663 507.5 617.0Q539 571 540 509H396Q395 532 382.5 552.5Q370 573 348.0 585.5Q326 598 296 598Q270 599 248.5 590.0Q227 581 214.5 563.5Q202 546 202 520Q202 495 214.5 478.0Q227 461 249.0 448.5Q271 436 301.0 425.5Q331 415 366 404Q418 386 462.0 361.5Q506 337 532.0 298.0Q558 259 558 195Q558 140 529.0 93.0Q500 46 445.5 17.0Q391 -12 310 -12Z"/></svg>